<svg xmlns="http://www.w3.org/2000/svg" xmlns:xlink="http://www.w3.org/1999/xlink" xmlns:lucid="lucid" width="822" height="910"><g transform="translate(-1456 -171)" lucid:page-tab-id="K~c~ZCvajOQn"><path d="M-1806.4 0h5483.2v2582.4h-5483.2z" fill="#fff"/><path d="M1580 319a19 19 0 0 1 19-19h102a19 19 0 0 1 19 19v2a19 19 0 0 1-19 19h-102a19 19 0 0 1-19-19z" stroke="#000" stroke-opacity="0" stroke-width="2" fill="#0c7cba"/><use xlink:href="#a" transform="matrix(1,0,0,1,1580,300) translate(54.13092230902779 24.637586805555543)"/><path d="M1720 319a19 19 0 0 1 19-19h102a19 19 0 0 1 19 19v2a19 19 0 0 1-19 19h-102a19 19 0 0 1-19-19z" stroke="#000" stroke-opacity="0" stroke-width="2" fill="#1071e5"/><use xlink:href="#b" transform="matrix(1,0,0,1,1720,300) translate(54.34278211805557 24.637586805555543)"/><path d="M1860 319a19 19 0 0 1 19-19h102a19 19 0 0 1 19 19v2a19 19 0 0 1-19 19h-102a19 19 0 0 1-19-19z" stroke="#000" stroke-opacity="0" stroke-width="2" fill="#1071e5"/><use xlink:href="#c" transform="matrix(1,0,0,1,1860,300) translate(54.277298177083345 24.637586805555543)"/><path d="M2000 319a19 19 0 0 1 19-19h102a19 19 0 0 1 19 19v2a19 19 0 0 1-19 19h-102a19 19 0 0 1-19-19z" stroke="#000" stroke-opacity="0" stroke-width="2" fill="#1071e5"/><use xlink:href="#d" transform="matrix(1,0,0,1,2000,300) translate(54.19640625000001 24.637586805555543)"/><path d="M1720 223.68h240v60h-240z" stroke="#000" stroke-opacity="0" stroke-width="2" fill="#fff" fill-opacity="0"/><use xlink:href="#e" transform="matrix(1,0,0,1,1725,228.67957511840075) translate(92.18847656250001 30.262586805555543)"/><path d="M1656.25 405.18a5.42 5.42 0 0 1-6.08 6.04l-3.23-.42a3 3 0 0 0-2.8 4.74l11.67 15.9a5.36 5.36 0 0 0 8.52.18l11.26-14.1a3.35 3.35 0 0 0-2.63-5.43h-2a7.96 7.96 0 0 1-7.92-6.9l-2.16-16.22a89.94 89.94 0 0 1-.76-13.94l.3-12.17a1.77 1.77 0 0 0-3.3-.97 23.27 23.27 0 0 0-3.42 12.13v3.2a111.96 111.96 0 0 0 .84 13.94z" stroke="#000" stroke-opacity="0" stroke-width="2" fill="#0084ff"/><path d="M1660 364h200v69.6h-200z" stroke="#000" stroke-opacity="0" stroke-width="2" fill="#fff" fill-opacity="0"/><use xlink:href="#f" transform="matrix(1,0,0,1,1665,369) translate(52.608778211805586 25.887586805555543)"/><use xlink:href="#g" transform="matrix(1,0,0,1,1665,369) translate(91.49853515625 25.887586805555543)"/><use xlink:href="#h" transform="matrix(1,0,0,1,1665,369) translate(53.15961371527781 44.377170138888864)"/><use xlink:href="#i" transform="matrix(1,0,0,1,1665,369) translate(88.33604600694446 44.377170138888864)"/><use xlink:href="#j" transform="matrix(1,0,0,1,1665,369) translate(104.83799913194443 44.377170138888864)"/><path d="M1580 486.8a19 19 0 0 1 19-19h102a19 19 0 0 1 19 19v2a19 19 0 0 1-19 19h-102a19 19 0 0 1-19-19z" stroke="#000" stroke-opacity="0" stroke-width="2" fill="#1071e5"/><use xlink:href="#a" transform="matrix(1,0,0,1,1580,467.7846685062725) translate(54.13092230902779 24.637586805555543)"/><path d="M1720 486.8a19 19 0 0 1 19-19h102a19 19 0 0 1 19 19v2a19 19 0 0 1-19 19h-102a19 19 0 0 1-19-19z" stroke="#000" stroke-opacity="0" stroke-width="2" fill="#0c7cba"/><use xlink:href="#b" transform="matrix(1,0,0,1,1720,467.7846685062725) translate(54.34278211805557 24.637586805555543)"/><path d="M1860 486.8a19 19 0 0 1 19-19h102a19 19 0 0 1 19 19v2a19 19 0 0 1-19 19h-102a19 19 0 0 1-19-19z" stroke="#000" stroke-opacity="0" stroke-width="2" fill="#1071e5"/><use xlink:href="#c" transform="matrix(1,0,0,1,1860,467.7846685062725) translate(54.277298177083345 24.637586805555543)"/><path d="M2000 486.8a19 19 0 0 1 19-19h102a19 19 0 0 1 19 19v2a19 19 0 0 1-19 19h-102a19 19 0 0 1-19-19z" stroke="#000" stroke-opacity="0" stroke-width="2" fill="#1071e5"/><use xlink:href="#d" transform="matrix(1,0,0,1,2000,467.7846685062725) translate(54.19640625000001 24.637586805555543)"/><path d="M1673.62 562.47c0 12.98-10.57 23.5-23.62 23.5s-23.62-10.52-23.62-23.5c0-12.97 10.57-23.5 23.62-23.5s23.62 10.53 23.62 23.5z" stroke="#000" stroke-opacity="0" stroke-width="2" fill="#00c2a8"/><use xlink:href="#k" transform="matrix(1,0,0,1,1631.3779527559054,543.9827983696422) translate(2.6944986979166785 23.887586805555543)"/><path d="M1788.36 568.86a5.42 5.42 0 0 1-6.08 6.04l-3.23-.42a3 3 0 0 0-2.8 4.74l11.66 15.9a5.36 5.36 0 0 0 8.52.18l11.27-14.1a3.35 3.35 0 0 0-2.65-5.43h-2a7.96 7.96 0 0 1-7.9-6.9l-2.17-16.2a89.94 89.94 0 0 1-.77-13.95l.3-12.17a1.77 1.77 0 0 0-3.28-.97 23.27 23.27 0 0 0-3.44 12.13v3.2a111.96 111.96 0 0 0 .85 13.95z" stroke="#000" stroke-opacity="0" stroke-width="2" fill="#0084ff"/><path d="M1792.1 527.68h200v69.6h-200z" stroke="#000" stroke-opacity="0" stroke-width="2" fill="#fff" fill-opacity="0"/><use xlink:href="#l" transform="matrix(1,0,0,1,1797.10491367426,532.6795751184009) translate(72.0536566840278 25.887586805555543)"/><use xlink:href="#m" transform="matrix(1,0,0,1,1797.10491367426,532.6795751184009) translate(56.42610677083336 44.377170138888864)"/><use xlink:href="#i" transform="matrix(1,0,0,1,1797.10491367426,532.6795751184009) translate(91.12489149305556 44.377170138888864)"/><use xlink:href="#n" transform="matrix(1,0,0,1,1797.10491367426,532.6795751184009) translate(107.62684461805554 44.377170138888864)"/><path d="M1580 632a19 19 0 0 1 19-19h102a19 19 0 0 1 19 19v2a19 19 0 0 1-19 19h-102a19 19 0 0 1-19-19z" stroke="#000" stroke-opacity="0" stroke-width="2" fill="#1071e5"/><use xlink:href="#a" transform="matrix(1,0,0,1,1580,612.987568743074) translate(54.13092230902779 24.637586805555543)"/><path d="M1720 632a19 19 0 0 1 19-19h102a19 19 0 0 1 19 19v2a19 19 0 0 1-19 19h-102a19 19 0 0 1-19-19z" stroke="#000" stroke-opacity="0" stroke-width="2" fill="#1071e5"/><use xlink:href="#b" transform="matrix(1,0,0,1,1720,612.987568743074) translate(54.34278211805557 24.637586805555543)"/><path d="M1860 632a19 19 0 0 1 19-19h102a19 19 0 0 1 19 19v2a19 19 0 0 1-19 19h-102a19 19 0 0 1-19-19z" stroke="#000" stroke-opacity="0" stroke-width="2" fill="#0c7cba"/><use xlink:href="#c" transform="matrix(1,0,0,1,1860,612.987568743074) translate(54.277298177083345 24.637586805555543)"/><path d="M2000 632a19 19 0 0 1 19-19h102a19 19 0 0 1 19 19v2a19 19 0 0 1-19 19h-102a19 19 0 0 1-19-19z" stroke="#000" stroke-opacity="0" stroke-width="2" fill="#1071e5"/><use xlink:href="#d" transform="matrix(1,0,0,1,2000,612.987568743074) translate(54.19640625000001 24.637586805555543)"/><path d="M1673.62 696.5c0 12.98-10.57 23.5-23.62 23.5s-23.62-10.52-23.62-23.5c0-12.96 10.57-23.48 23.62-23.48s23.62 10.52 23.62 23.5z" stroke="#000" stroke-opacity="0" stroke-width="2" fill="#00c2a8"/><use xlink:href="#k" transform="matrix(1,0,0,1,1631.3779527559054,678.02) translate(2.6944986979166785 23.887586805555543)"/><path d="M1720.87 696.5c0 12.98-10.58 23.5-23.63 23.5-13.04 0-23.62-10.52-23.62-23.5 0-12.96 10.58-23.48 23.62-23.48 13.05 0 23.63 10.52 23.63 23.5z" stroke="#000" stroke-opacity="0" stroke-width="2" fill="#fc9432"/><use xlink:href="#o" transform="matrix(1,0,0,1,1678.6220472440943,678.02) translate(6.018771701388898 23.887586805555543)"/><path d="M1929.8 713.06a5.42 5.42 0 0 1-6.1 6.04l-3.22-.42a3 3 0 0 0-2.8 4.74l11.66 15.9a5.36 5.36 0 0 0 8.5.18l11.27-14.1a3.35 3.35 0 0 0-2.62-5.43h-2a7.96 7.96 0 0 1-7.9-6.9l-2.17-16.2a89.94 89.94 0 0 1-.76-13.95l.28-12.18a1.77 1.77 0 0 0-3.27-.96 23.27 23.27 0 0 0-3.44 12.13v3.2a111.96 111.96 0 0 0 .86 13.95z" stroke="#000" stroke-opacity="0" stroke-width="2" fill="#0084ff"/><path d="M1933.53 671.88h200v69.58h-200z" stroke="#000" stroke-opacity="0" stroke-width="2" fill="#fff" fill-opacity="0"/><use xlink:href="#l" transform="matrix(1,0,0,1,1938.5344337012682,676.8772130832424) translate(72.0536566840278 25.887586805555543)"/><use xlink:href="#p" transform="matrix(1,0,0,1,1938.5344337012682,676.8772130832424) translate(55.15109592013892 44.377170138888864)"/><use xlink:href="#i" transform="matrix(1,0,0,1,1938.5344337012682,676.8772130832424) translate(90.30441623263889 44.377170138888864)"/><use xlink:href="#q" transform="matrix(1,0,0,1,1938.5344337012682,676.8772130832424) translate(106.80636935763889 44.377170138888864)"/><path d="M1580 784.2a19 19 0 0 1 19-19h102a19 19 0 0 1 19 19v2a19 19 0 0 1-19 19h-102a19 19 0 0 1-19-19z" stroke="#000" stroke-opacity="0" stroke-width="2" fill="#1071e5"/><use xlink:href="#a" transform="matrix(1,0,0,1,1580,765.2029002368013) translate(54.13092230902779 24.637586805555543)"/><path d="M1720 784.2a19 19 0 0 1 19-19h102a19 19 0 0 1 19 19v2a19 19 0 0 1-19 19h-102a19 19 0 0 1-19-19z" stroke="#000" stroke-opacity="0" stroke-width="2" fill="#1071e5"/><use xlink:href="#b" transform="matrix(1,0,0,1,1720,765.2029002368013) translate(54.34278211805557 24.637586805555543)"/><path d="M1860 784.2a19 19 0 0 1 19-19h102a19 19 0 0 1 19 19v2a19 19 0 0 1-19 19h-102a19 19 0 0 1-19-19z" stroke="#000" stroke-opacity="0" stroke-width="2" fill="#1071e5"/><use xlink:href="#c" transform="matrix(1,0,0,1,1860,765.2029002368013) translate(54.277298177083345 24.637586805555543)"/><path d="M2000 784.2a19 19 0 0 1 19-19h102a19 19 0 0 1 19 19v2a19 19 0 0 1-19 19h-102a19 19 0 0 1-19-19z" stroke="#000" stroke-opacity="0" stroke-width="2" fill="#0c7cba"/><use xlink:href="#d" transform="matrix(1,0,0,1,2000,765.2029002368013) translate(54.19640625000001 24.637586805555543)"/><path d="M1673.62 848.73c0 12.97-10.57 23.5-23.62 23.5s-23.62-10.53-23.62-23.5c0-12.98 10.57-23.5 23.62-23.5s23.62 10.52 23.62 23.5z" stroke="#000" stroke-opacity="0" stroke-width="2" fill="#00c2a8"/><use xlink:href="#k" transform="matrix(1,0,0,1,1631.3779527559054,830.2353314937272) translate(2.6944986979166785 23.887586805555543)"/><path d="M1720.87 848.73c0 12.97-10.58 23.5-23.63 23.5-13.04 0-23.62-10.53-23.62-23.5 0-12.98 10.58-23.5 23.62-23.5 13.05 0 23.63 10.52 23.63 23.5z" stroke="#000" stroke-opacity="0" stroke-width="2" fill="#fc9432"/><use xlink:href="#o" transform="matrix(1,0,0,1,1678.6220472440943,830.2353314937272) translate(6.018771701388898 23.887586805555543)"/><path d="M2056.25 874.1a5.42 5.42 0 0 1-6.08 6.04l-3.23-.43a3 3 0 0 0-2.8 4.75l11.67 15.9a5.36 5.36 0 0 0 8.52.2l11.26-14.1a3.35 3.35 0 0 0-2.63-5.45h-2a7.96 7.96 0 0 1-7.92-6.9l-2.16-16.2a89.94 89.94 0 0 1-.76-13.94l.3-12.18a1.77 1.77 0 0 0-3.3-.96 23.27 23.27 0 0 0-3.42 12.12v3.2a111.96 111.96 0 0 0 .84 13.95z" stroke="#000" stroke-opacity="0" stroke-width="2" fill="#0084ff"/><path d="M2060 832.9h200v69.6h-200z" stroke="#000" stroke-opacity="0" stroke-width="2" fill="#fff" fill-opacity="0"/><use xlink:href="#r" transform="matrix(1,0,0,1,2065.0000000000005,837.9149066121281) translate(53.787489149305586 25.887586805555543)"/><use xlink:href="#g" transform="matrix(1,0,0,1,2065.0000000000005,837.9149066121281) translate(90.31982421875 25.887586805555543)"/><use xlink:href="#p" transform="matrix(1,0,0,1,2065.0000000000005,837.9149066121281) translate(55.15109592013892 44.377170138888864)"/><use xlink:href="#i" transform="matrix(1,0,0,1,2065.0000000000005,837.9149066121281) translate(90.30441623263889 44.377170138888864)"/><use xlink:href="#q" transform="matrix(1,0,0,1,2065.0000000000005,837.9149066121281) translate(106.80636935763889 44.377170138888864)"/><path d="M1767.24 848.73c0 12.97-10.57 23.5-23.62 23.5-13.04 0-23.62-10.53-23.62-23.5 0-12.98 10.58-23.5 23.62-23.5 13.05 0 23.62 10.52 23.62 23.5z" stroke="#000" stroke-opacity="0" stroke-width="2" fill="#fc9432"/><g><use xlink:href="#s" transform="matrix(1,0,0,1,1725,830.2353314937272) translate(4.7553168402777874 23.887586805555543)"/></g><path d="M2013.16 949.53c0 12.97-10.57 23.5-23.62 23.5-13.04 0-23.62-10.53-23.62-23.5s10.58-23.5 23.62-23.5c13.05 0 23.62 10.53 23.62 23.5z" stroke="#000" stroke-opacity="0" stroke-width="2" fill="#00c2a8"/><g><use xlink:href="#k" transform="matrix(1,0,0,1,1970.919810610046,931.0399999999997) translate(2.6944986979166785 23.887586805555543)"/></g><path d="M2060.4 949.53c0 12.97-10.57 23.5-23.6 23.5-13.06 0-23.64-10.53-23.64-23.5s10.58-23.5 23.63-23.5c13.03 0 23.6 10.53 23.6 23.5z" stroke="#000" stroke-opacity="0" stroke-width="2" fill="#fc9432"/><g><use xlink:href="#o" transform="matrix(1,0,0,1,2018.1639050982349,931.0399999999997) translate(6.018771701388898 23.887586805555543)"/></g><path d="M2106.8 949.53c0 12.97-10.6 23.5-23.64 23.5-13.04 0-23.62-10.53-23.62-23.5s10.58-23.5 23.62-23.5c13.05 0 23.63 10.53 23.63 23.5z" stroke="#000" stroke-opacity="0" stroke-width="2" fill="#fc9432"/><g><use xlink:href="#s" transform="matrix(1,0,0,1,2064.5418578541403,931.0399999999997) translate(4.7553168402777874 23.887586805555543)"/></g><path d="M2154.03 949.53c0 12.97-10.58 23.5-23.62 23.5-13.04 0-23.6-10.53-23.6-23.5s10.56-23.5 23.6-23.5c13.05 0 23.63 10.53 23.63 23.5z" stroke="#000" stroke-opacity="0" stroke-width="2" fill="#fe7070"/><g><use xlink:href="#t" transform="matrix(1,0,0,1,2111.7859523423294,931.0399999999997) translate(-1.1574978298611 23.892795138888886)"/></g><defs><path fill="#fff" d="M952-300H426L326 0H7l542-1456h278L1372 0h-319zM507-543h364l-183-545" id="u"/><path fill="#fff" d="M416-495c-3 181 88 274 258 274 169 0 257-89 257-266v-969h301v959c3 324-227 517-558 517-328 0-557-188-558-506v-970h300v961" id="v"/><path fill="#fff" d="M399-777c-11 316 60 556 342 556 113 0 193-24 241-72v-251H709v-221h573v581C1177-55 960 24 725 20 280 12 81-292 94-770c11-421 200-700 610-706 347-5 543 171 578 483H990c-25-157-105-241-277-241-102 0-180 38-233 115s-76 191-81 342" id="w"/><g id="a"><use transform="matrix(0.00770399305555555,0,0,0.00770399305555555,0,0)" xlink:href="#u"/><use transform="matrix(0.00770399305555555,0,0,0.00770399305555555,10.616102430555548,0)" xlink:href="#v"/><use transform="matrix(0.00770399305555555,0,0,0.00770399305555555,21.00108506944443,0)" xlink:href="#w"/></g><path fill="#fff" d="M687-225c189-1 272-84 286-260h300c-19 311-251 505-586 505C296 20 86-277 86-686c0-466 174-782 605-790 340-6 557 198 584 514H975c-15-183-92-268-284-268-100 0-173 38-225 108-63 84-76 264-76 443 0 157 24 272 72 345s122 109 225 109" id="x"/><g id="b"><use transform="matrix(0.00770399305555555,0,0,0.00770399305555555,0,0)" xlink:href="#u"/><use transform="matrix(0.00770399305555555,0,0,0.00770399305555555,10.616102430555548,0)" xlink:href="#v"/><use transform="matrix(0.00770399305555555,0,0,0.00770399305555555,21.00108506944443,0)" xlink:href="#x"/></g><g id="c"><use transform="matrix(0.00770399305555555,0,0,0.00770399305555555,0,0)" xlink:href="#v"/><use transform="matrix(0.00770399305555555,0,0,0.00770399305555555,10.38498263888888,0)" xlink:href="#x"/><use transform="matrix(0.00770399305555555,0,0,0.00770399305555555,20.708333333333318,0)" xlink:href="#w"/></g><g id="d"><use transform="matrix(0.007703993055555549,0,0,0.007703993055555549,0,0)" xlink:href="#v"/><use transform="matrix(0.00770399305555555,0,0,0.00770399305555555,10.38498263888888,0)" xlink:href="#u"/><use transform="matrix(0.00770399305555555,0,0,0.00770399305555555,21.00108506944443,0)" xlink:href="#u"/></g><path d="M741-689c-2-124-40-177-163-178-82 0-141 34-178 102V0H111v-1082h271l9 121c77-94 180-141 311-141 139 0 235 55 287 165 76-110 184-165 325-165 249 0 348 151 348 411V0h-290v-690c-2-123-39-176-163-177-87 0-147 41-180 124l1 743H741v-689" id="y"/><path d="M1209-1016c0 219-100 334-260 407l315 595V0H942L669-533H430V0H130v-1456h541c318-3 538 141 538 440zm-300 24c-1-144-85-221-238-221H430v437h242c144 2 238-77 237-216" id="z"/><path d="M1314 0h-300L430-958V0H130v-1456h300l585 960v-960h299V0" id="A"/><path d="M952-300H426L326 0H7l542-1456h278L1372 0h-319zM507-543h364l-183-545" id="B"/><g id="e"><use transform="matrix(0.00770399305555555,0,0,0.00770399305555555,0,0)" xlink:href="#y"/><use transform="matrix(0.00770399305555555,0,0,0.00770399305555555,13.65917968749999,0)" xlink:href="#z"/><use transform="matrix(0.00770399305555555,0,0,0.00770399305555555,23.728298611111093,0)" xlink:href="#A"/><use transform="matrix(0.00770399305555555,0,0,0.00770399305555555,35.006944444444414,0)" xlink:href="#B"/></g><path d="M658-217c127 0 227-49 227-165 0-57-21-98-60-130-79-64-370-142-463-196-162-95-248-210-248-361 0-280 246-403 537-407 213-3 383 84 467 216 45 69 68 147 68 234H886c0-139-96-211-240-211-129 0-232 55-232 169 0 47 24 87 72 119s117 62 210 90c171 51 295 115 373 191s117 171 117 284c-2 272-237 411-528 404C331 13 78-135 69-458h301c0 161 96 241 288 241" id="C"/><path d="M457-330c2 83 25 111 111 112 32 0 60-2 85-7V-6c-57 17-115 26-175 26-203 0-310-102-310-307v-583H10v-212h158v-266h289v266h185v212H457v540" id="D"/><path d="M552-1102c254-4 435 134 435 383v469c1 103 15 180 43 233V0H738c-13-26-23-58-29-97C639-19 548 20 436 20 238 20 64-113 68-304c5-258 212-357 496-357h133c11-137-29-227-160-227-90 0-156 45-156 131H92c15-231 213-342 460-345zM357-325c0 76 61 124 142 124 88 0 168-45 198-105v-186H589c-152 2-232 51-232 167" id="E"/><path d="M719-811c-143-24-279 1-319 103V0H111v-1082h273l8 129c74-124 180-175 331-136" id="F"/><g id="f"><use transform="matrix(0.00770399305555555,0,0,0.00770399305555555,0,0)" xlink:href="#C"/><use transform="matrix(0.00770399305555555,0,0,0.00770399305555555,9.699327256944438,0)" xlink:href="#D"/><use transform="matrix(0.00770399305555555,0,0,0.00770399305555555,15.030490451388879,0)" xlink:href="#E"/><use transform="matrix(0.00770399305555555,0,0,0.00770399305555555,23.48947482638887,0)" xlink:href="#F"/><use transform="matrix(0.00770399305555555,0,0,0.00770399305555555,29.629557291666647,0)" xlink:href="#D"/></g><path d="M687-225c189-1 272-84 286-260h300c-19 311-251 505-586 505C296 20 86-277 86-686c0-466 174-782 605-790 340-6 557 198 584 514H975c-15-183-92-268-284-268-100 0-173 38-225 108-63 84-76 264-76 443 0 157 24 272 72 345s122 109 225 109" id="G"/><path d="M579 20C257 20 58-214 66-551c8-331 182-551 511-551 324 0 514 231 514 572 0 319-198 550-512 550zm-2-888c-169 0-222 141-222 338 0 181 61 317 224 317 170 0 223-137 223-338 0-178-64-317-225-317" id="H"/><path d="M488 20C204 20 66-234 66-549c0-305 140-551 424-553 105 0 192 39 261 118v-552h290V0H780l-14-115C694-25 601 20 488 20zM355-528c0 176 51 314 207 314 89 0 152-38 189-113v-427c-36-75-98-113-187-113-139 0-209 113-209 339" id="I"/><path d="M750-692c-1-124-48-174-173-175-81 0-142 35-183 104V0H105v-1082h272l9 125c77-97 181-145 311-145 244 0 342 151 342 403V0H750v-692" id="J"/><g id="g"><use transform="matrix(0.00770399305555555,0,0,0.00770399305555555,0,0)" xlink:href="#G"/><use transform="matrix(0.00770399305555555,0,0,0.00770399305555555,10.323350694444438,0)" xlink:href="#H"/><use transform="matrix(0.00770399305555555,0,0,0.00770399305555555,19.244574652777764,0)" xlink:href="#I"/><use transform="matrix(0.00770399305555555,0,0,0.00770399305555555,28.13498263888887,0)" xlink:href="#H"/><use transform="matrix(0.00770399305555555,0,0,0.00770399305555555,37.0562065972222,0)" xlink:href="#J"/></g><path d="M973-380H363L226 0H28l556-1456h168L1309 0h-197zM421-538h495l-248-681" id="K"/><path d="M665-137c214 0 337-121 336-332v-987h193v990c-3 300-218 486-529 486-309 0-526-181-525-484v-992h190v986c-1 210 123 333 335 333" id="L"/><path d="M730-137c145 0 253-29 323-105v-327H716v-156h528v534C1148-51 964 20 729 20c-394 0-598-279-607-678v-127c-5-410 194-690 585-691 310-1 499 171 537 447h-192c-36-193-151-289-344-289-285 0-393 220-393 528v119c-5 296 140 534 415 534" id="M"/><g id="h"><use transform="matrix(0.00770399305555555,0,0,0.00770399305555555,0,0)" xlink:href="#K"/><use transform="matrix(0.00770399305555555,0,0,0.00770399305555555,10.292534722222214,0)" xlink:href="#L"/><use transform="matrix(0.00770399305555555,0,0,0.00770399305555555,20.523437499999986,0)" xlink:href="#M"/></g><path d="M525-543H37v-151h488v151" id="N"/><path d="M795-650L134-909v-190l854 378v146L134-196v-192" id="O"/><g id="i"><use transform="matrix(0.00770399305555555,0,0,0.00770399305555555,0,0)" xlink:href="#N"/><use transform="matrix(0.00770399305555555,0,0,0.00770399305555555,4.352756076388886,0)" xlink:href="#O"/></g><path d="M417-1456L893-268l476-1188h249V0h-192c-4-403 4-794 18-1179L966 0H819L342-1176c15 384 23 773 19 1176H169v-1456h248" id="P"/><path d="M992-673H361v516h733V0H169v-1456h915v158H361v468h631v157" id="Q"/><path d="M1175-1298H707V0H516v-1298H49v-158h1126v158" id="R"/><g id="j"><use transform="matrix(0.00770399305555555,0,0,0.00770399305555555,0,0)" xlink:href="#P"/><use transform="matrix(0.00770399305555555,0,0,0.00770399305555555,13.774739583333323,0)" xlink:href="#Q"/><use transform="matrix(0.00770399305555555,0,0,0.00770399305555555,22.896267361111093,0)" xlink:href="#R"/></g><path fill="#fff" d="M522-1456L896-400l372-1056h394V0h-301c-7-379 15-728 30-1085L998 0H792L400-1084c15 357 37 705 30 1084H130v-1456h392" id="S"/><path fill="#fff" d="M1006-631H430v390h676V0H130v-1456h974v243H430v347h576v235" id="T"/><path fill="#fff" d="M1226-1213H780V0H480v-1213H40v-243h1186v243" id="U"/><g id="k"><use transform="matrix(0.00770399305555555,0,0,0.00770399305555555,0,0)" xlink:href="#S"/><use transform="matrix(0.00770399305555555,0,0,0.00770399305555555,13.820963541666657,0)" xlink:href="#T"/><use transform="matrix(0.00770399305555555,0,0,0.00770399305555555,22.85004340277776,0)" xlink:href="#U"/></g><g id="l"><use transform="matrix(0.00770399305555555,0,0,0.00770399305555555,0,0)" xlink:href="#G"/><use transform="matrix(0.00770399305555555,0,0,0.00770399305555555,10.323350694444438,0)" xlink:href="#H"/><use transform="matrix(0.00770399305555555,0,0,0.00770399305555555,19.244574652777764,0)" xlink:href="#I"/><use transform="matrix(0.00770399305555555,0,0,0.00770399305555555,28.13498263888887,0)" xlink:href="#H"/><use transform="matrix(0.00770399305555555,0,0,0.00770399305555555,37.0562065972222,0)" xlink:href="#J"/></g><path d="M688-137c238 0 323-102 359-325h193c-32 297-228 482-552 482-361 0-569-299-569-680 0-197 8-360 73-497 88-186 257-317 513-319 316-2 509 195 535 488h-193c-31-212-118-330-342-330-272 0-397 224-393 523v141c-3 282 115 517 376 517" id="V"/><g id="m"><use transform="matrix(0.00770399305555555,0,0,0.00770399305555555,0,0)" xlink:href="#K"/><use transform="matrix(0.00770399305555555,0,0,0.00770399305555555,10.292534722222214,0)" xlink:href="#L"/><use transform="matrix(0.00770399305555555,0,0,0.00770399305555555,20.523437499999986,0)" xlink:href="#V"/></g><path d="M362-157h690V0H169v-1456h193v1299" id="W"/><g id="n"><use transform="matrix(0.00770399305555555,0,0,0.00770399305555555,0,0)" xlink:href="#W"/><use transform="matrix(0.00770399305555555,0,0,0.00770399305555555,8.489800347222216,0)" xlink:href="#W"/><use transform="matrix(0.00770399305555555,0,0,0.00770399305555555,16.979600694444432,0)" xlink:href="#Q"/></g><path fill="#fff" d="M430-241h637V0H130v-1456h300v1215" id="X"/><g id="o"><use transform="matrix(0.00770399305555555,0,0,0.00770399305555555,0,0)" xlink:href="#X"/><use transform="matrix(0.00770399305555555,0,0,0.00770399305555555,8.543728298611105,0)" xlink:href="#X"/><use transform="matrix(0.00770399305555555,0,0,0.00770399305555555,17.08745659722221,0)" xlink:href="#T"/></g><g id="p"><use transform="matrix(0.00770399305555555,0,0,0.00770399305555555,0,0)" xlink:href="#L"/><use transform="matrix(0.00770399305555555,0,0,0.00770399305555555,10.23090277777777,0)" xlink:href="#V"/><use transform="matrix(0.00770399305555555,0,0,0.00770399305555555,20.500325520833318,0)" xlink:href="#M"/></g><path d="M631-137c179 0 314-70 314-231 0-71-25-127-75-166s-141-77-272-115c-165-47-285-106-360-175s-112-154-112-255c0-245 231-397 495-397 206 0 369 89 449 218 43 68 65 142 65 223H942c0-184-129-283-321-283-172 0-299 76-301 236 0 59 26 109 76 150s135 78 256 113c205 59 345 116 436 256 35 53 50 119 50 193-2 256-231 398-507 390C333 12 90-129 80-422h193c0 187 160 285 358 285" id="Y"/><path d="M1161-1018c0 201-122 330-278 388l342 618V0h-206L703-589H361V0H168v-1456h482c310-2 511 139 511 438zm-193 0c0-187-120-280-313-280H361v552h295c179 3 313-101 312-272" id="Z"/><g id="q"><use transform="matrix(0.00770399305555555,0,0,0.00770399305555555,0,0)" xlink:href="#Y"/><use transform="matrix(0.00770399305555555,0,0,0.00770399305555555,9.360351562499993,0)" xlink:href="#Q"/><use transform="matrix(0.00770399305555555,0,0,0.00770399305555555,18.327799479166654,0)" xlink:href="#Z"/></g><path d="M663-1102c295 0 422 250 422 571 0 300-141 549-420 551-109 0-198-38-265-114v510H111v-1498h268l10 106c70-84 161-126 274-126zm133 550c0-175-53-315-209-315-91 0-153 35-187 104v443c35 71 98 107 189 107 138 0 207-113 207-339" id="aa"/><g id="r"><use transform="matrix(0.00770399305555555,0,0,0.00770399305555555,0,0)" xlink:href="#C"/><use transform="matrix(0.00770399305555555,0,0,0.00770399305555555,9.699327256944438,0)" xlink:href="#D"/><use transform="matrix(0.00770399305555555,0,0,0.00770399305555555,14.79937065972221,0)" xlink:href="#H"/><use transform="matrix(0.00770399305555555,0,0,0.00770399305555555,23.720594618055536,0)" xlink:href="#aa"/></g><path fill="#fff" d="M658-217c127 0 227-49 227-165 0-57-21-98-60-130-79-64-370-142-463-196-162-95-248-210-248-361 0-280 246-403 537-407 213-3 383 84 467 216 45 69 68 147 68 234H886c0-139-96-211-240-211-129 0-232 55-232 169 0 47 24 87 72 119s117 62 210 90c171 51 295 115 373 191s117 171 117 284c-2 272-237 411-528 404C331 13 78-135 69-458h301c0 161 96 241 288 241" id="ab"/><g id="s"><use transform="matrix(0.00770399305555555,0,0,0.00770399305555555,0,0)" xlink:href="#ab"/><use transform="matrix(0.00770399305555555,0,0,0.00770399305555555,9.699327256944438,0)" xlink:href="#T"/><use transform="matrix(0.00770399305555555,0,0,0.00770399305555555,18.728407118055543,0)" xlink:href="#U"/></g><path fill="#fff" d="M1248-1138c106 220 104 603 2 820-91 195-274 338-542 338C281 20 86-300 86-759c0-291 115-515 296-629 182-114 467-115 648 0 94 60 166 141 218 250zM940-344c111-153 110-617 0-765-57-77-133-119-234-119s-177 41-233 118c-64 88-83 240-83 415 0 149 27 264 82 346s133 123 236 123c101 0 176-40 232-118" id="ac"/><path fill="#fff" d="M1245-974c0 302-233 466-552 461H430V0H130v-1456h568c323 5 547 167 547 482zm-303 2c1-143-93-241-237-241H430v457h268c151 1 244-71 244-216" id="ad"/><g id="t"><use transform="matrix(0.00770399305555555,0,0,0.00770399305555555,0,0)" xlink:href="#ab"/><use transform="matrix(0.00770399305555555,0,0,0.00770399305555555,9.699327256944438,0)" xlink:href="#U"/><use transform="matrix(0.00770399305555555,0,0,0.00770399305555555,19.244574652777764,0)" xlink:href="#ac"/><use transform="matrix(0.00770399305555555,0,0,0.00770399305555555,30.138020833333314,0)" xlink:href="#ad"/></g></defs></g></svg>