<svg xmlns="http://www.w3.org/2000/svg" xmlns:xlink="http://www.w3.org/1999/xlink" xmlns:lucid="lucid" width="606" height="598"><g transform="translate(-238 -65)" lucid:page-tab-id="xLNJC4n2ZptB"><path d="M0 0h1870.4v1323.2H0z" fill="#fff"/><path d="M272 160.07a9 9 0 0 1 9-9h552a9 9 0 0 1 9 9v342a9 9 0 0 1-9 9H281a9 9 0 0 1-9-9zM420 525a9 9 0 0 1 9-9h242a9 9 0 0 1 9 9v122a9 9 0 0 1-9 9H429a9 9 0 0 1-9-9zM360 75a9 9 0 0 1 9-9h362a9 9 0 0 1 9 9v62a9 9 0 0 1-9 9H369a9 9 0 0 1-9-9zM846 229a9 9 0 0 1 9-9h302a9 9 0 0 1 9 9v202a9 9 0 0 1-9 9H855a9 9 0 0 1-9-9z" stroke="#000" stroke-opacity="0" stroke-width="3" fill="#fff"/><path d="M600 330c0 82.84-62.68 150-140 150s-140-67.16-140-150 62.68-150 140-150 140 67.16 140 150z" stroke="#1071e5" stroke-width="2" fill="#e5e5e5" fill-opacity=".35"/><use xlink:href="#a" transform="matrix(1,0,0,1,325,185) translate(118.38950617283952 148.5597222222222)"/><path d="M780 330c0 82.84-62.68 150-140 150s-140-67.16-140-150 62.68-150 140-150 140 67.16 140 150z" stroke="#1071e5" stroke-width="2" fill="#e5e5e5" fill-opacity=".35"/><use xlink:href="#b" transform="matrix(1,0,0,1,505,185) translate(118.38950617283952 148.5597222222222)"/><path d="M610 330c0 64.32-26.86 116.47-60 116.47S490 394.32 490 330s26.86-116.47 60-116.47 60 52.15 60 116.47z" stroke="#1071e5" stroke-width="2" fill="#fff"/><use xlink:href="#c" transform="matrix(1,0,0,1,495,218.53333333333336) translate(8.525000000000034 111.96249999999999)"/><path d="M430 524.2h240v123.6H430z" stroke="#000" stroke-opacity="0" stroke-width="2" fill="#fff" fill-opacity="0"/><use xlink:href="#d" transform="matrix(1,0,0,1,435,529.2) translate(68.48888888888891 33.99027777777777)"/><use xlink:href="#e" transform="matrix(1,0,0,1,435,529.2) translate(2.9558641975309285 54.701388888888864)"/><use xlink:href="#f" transform="matrix(1,0,0,1,435,529.2) translate(100.12067901234569 54.701388888888864)"/><use xlink:href="#g" transform="matrix(1,0,0,1,435,529.2) translate(113.26882716049383 54.701388888888864)"/><use xlink:href="#h" transform="matrix(1,0,0,1,435,529.2) translate(139.52129629629627 54.701388888888864)"/><use xlink:href="#i" transform="matrix(1,0,0,1,435,529.2) translate(7.71111111111118 73.6347222222222)"/><use xlink:href="#j" transform="matrix(1,0,0,1,435,529.2) translate(68.93765432098768 73.6347222222222)"/><use xlink:href="#k" transform="matrix(1,0,0,1,435,529.2) translate(89.9746913580247 73.6347222222222)"/><use xlink:href="#l" transform="matrix(1,0,0,1,435,529.2) translate(111.01172839506172 73.6347222222222)"/><use xlink:href="#m" transform="matrix(1,0,0,1,435,529.2) translate(183.72098765432094 73.6347222222222)"/><use xlink:href="#n" transform="matrix(1,0,0,1,435,529.2) translate(80.39845679012348 92.5680555555555)"/><path d="M390 66h320v89.93H390z" stroke="#000" stroke-opacity="0" stroke-width="2" fill="#fff" fill-opacity="0"/><g><use xlink:href="#o" transform="matrix(1,0,0,1,395,71) translate(31.47993827160498 45.78888888888888)"/><use xlink:href="#p" transform="matrix(1,0,0,1,395,71) translate(155.7682098765432 45.78888888888888)"/></g><path d="M846 240h320v89.93H846z" stroke="#000" stroke-opacity="0" stroke-width="2" fill="#fff" fill-opacity="0"/><g><use xlink:href="#q" transform="matrix(1,0,0,1,851,245.00000000000003) translate(21.628703703703763 44.73333333333332)"/><use xlink:href="#r" transform="matrix(1,0,0,1,851,245.00000000000003) translate(140.64537037037036 44.73333333333332)"/></g><path d="M255 152.07h180v53H255z" stroke="#000" stroke-opacity="0" stroke-width="2" fill="#fff" fill-opacity="0"/><g><use xlink:href="#s" transform="matrix(1,0,0,1,260,157.0666666666667) translate(22.945679012345742 16.219444444444434)"/><use xlink:href="#t" transform="matrix(1,0,0,1,260,157.0666666666667) translate(83.87037037037038 16.219444444444434)"/><use xlink:href="#u" transform="matrix(1,0,0,1,260,157.0666666666667) translate(102.69753086419752 16.219444444444434)"/><use xlink:href="#v" transform="matrix(1,0,0,1,260,157.0666666666667) translate(57.92654320987656 32.486111111111086)"/></g><defs><path d="M30-248c118-7 216 8 213 122C240-48 200 0 122 0H30v-248zM63-27c89 8 146-16 146-99s-60-101-146-95v194" id="w"/><path d="M190 0L58-211 59 0H30v-248h39L202-35l-2-213h31V0h-41" id="x"/><path d="M205 0l-28-72H64L36 0H1l101-248h38L239 0h-34zm-38-99l-47-123c-12 45-31 82-46 123h93" id="y"/><g id="a"><use transform="matrix(0.04382716049382713,0,0,0.04382716049382713,0,0)" xlink:href="#w"/><use transform="matrix(0.04382716049382713,0,0,0.04382716049382713,11.351234567901226,0)" xlink:href="#x"/><use transform="matrix(0.04382716049382713,0,0,0.04382716049382713,22.702469135802453,0)" xlink:href="#y"/></g><path d="M233-177c-1 41-23 64-60 70L243 0h-38l-65-103H63V0H30v-248c88 3 205-21 203 71zM63-129c60-2 137 13 137-47 0-61-80-42-137-45v92" id="z"/><g id="b"><use transform="matrix(0.04382716049382713,0,0,0.04382716049382713,0,0)" xlink:href="#z"/><use transform="matrix(0.04382716049382713,0,0,0.04382716049382713,11.351234567901226,0)" xlink:href="#x"/><use transform="matrix(0.04382716049382713,0,0,0.04382716049382713,22.702469135802453,0)" xlink:href="#y"/></g><path d="M33 0v-248h34V0H33" id="A"/><path d="M117-194c89-4 53 116 60 194h-32v-121c0-31-8-49-39-48C34-167 62-67 57 0H25l-1-190h30c1 10-1 24 2 32 11-22 29-35 61-36" id="B"/><path d="M59-47c-2 24 18 29 38 22v24C64 9 27 4 27-40v-127H5v-23h24l9-43h21v43h35v23H59v120" id="C"/><path d="M100-194c63 0 86 42 84 106H49c0 40 14 67 53 68 26 1 43-12 49-29l28 8c-11 28-37 45-77 45C44 4 14-33 15-96c1-61 26-98 85-98zm52 81c6-60-76-77-97-28-3 7-6 17-6 28h103" id="D"/><path d="M114-163C36-179 61-72 57 0H25l-1-190h30c1 12-1 29 2 39 6-27 23-49 58-41v29" id="E"/><path d="M135-143c-3-34-86-38-87 0 15 53 115 12 119 90S17 21 10-45l28-5c4 36 97 45 98 0-10-56-113-15-118-90-4-57 82-63 122-42 12 7 21 19 24 35" id="F"/><path d="M96-169c-40 0-48 33-48 73s9 75 48 75c24 0 41-14 43-38l32 2c-6 37-31 61-74 61-59 0-76-41-82-99-10-93 101-131 147-64 4 7 5 14 7 22l-32 3c-4-21-16-35-41-35" id="G"/><path d="M96-169c-40 0-48 33-48 73s9 75 48 75c24 0 41-14 43-38l32 2c-6 37-31 61-74 61-59 0-76-41-82-99-10-93 101-131 147-64 4 7 5 14 7 22l-32 3c-4-21-16-35-41-35zm3 187c19-1 33 8 33 26 0 31-30 33-64 32V58c18 2 39 4 41-13 1-15-18-13-34-13L87 0h19" id="H"/><path d="M141-36C126-15 110 5 73 4 37 3 15-17 15-53c-1-64 63-63 125-63 3-35-9-54-41-54-24 1-41 7-42 31l-33-3c5-37 33-52 76-52 45 0 72 20 72 64v82c-1 20 7 32 28 27v20c-31 9-61-2-59-35zM48-53c0 20 12 33 32 33 41-3 63-29 60-74-43 2-92-5-92 41zm117-205c-3 23-9 48-36 47-26-1-65-44-74 0H39c4-23 8-48 36-47s64 44 74 0h16" id="I"/><path d="M100-194c62-1 85 37 85 99 1 63-27 99-86 99S16-35 15-95c0-66 28-99 85-99zM99-20c44 1 53-31 53-75 0-43-8-75-51-75s-53 32-53 75 10 74 51 75" id="J"/><g id="c"><use transform="matrix(0.04999999999999997,0,0,0.04999999999999997,0,0)" xlink:href="#A"/><use transform="matrix(0.04999999999999997,0,0,0.04999999999999997,4.9999999999999964,0)" xlink:href="#B"/><use transform="matrix(0.04999999999999997,0,0,0.04999999999999997,14.999999999999991,0)" xlink:href="#C"/><use transform="matrix(0.04999999999999997,0,0,0.04999999999999997,19.999999999999986,0)" xlink:href="#D"/><use transform="matrix(0.04999999999999997,0,0,0.04999999999999997,29.999999999999982,0)" xlink:href="#E"/><use transform="matrix(0.04999999999999997,0,0,0.04999999999999997,35.949999999999974,0)" xlink:href="#F"/><use transform="matrix(0.04999999999999997,0,0,0.04999999999999997,44.94999999999997,0)" xlink:href="#D"/><use transform="matrix(0.04999999999999997,0,0,0.04999999999999997,54.94999999999997,0)" xlink:href="#G"/><use transform="matrix(0.04999999999999997,0,0,0.04999999999999997,63.949999999999946,0)" xlink:href="#H"/><use transform="matrix(0.04999999999999997,0,0,0.04999999999999997,72.94999999999995,0)" xlink:href="#I"/><use transform="matrix(0.04999999999999997,0,0,0.04999999999999997,82.94999999999993,0)" xlink:href="#J"/></g><path fill="#ec9536" d="M230 0l2-204L168 0h-37L68-204 70 0H24v-248h70l56 185 57-185h69V0h-46" id="K"/><path fill="#ec9536" d="M85 4C-2 5 27-109 22-190h50c7 57-23 150 33 157 60-5 35-97 40-157h50l1 190h-47c-2-12 1-28-3-38-12 25-28 42-61 42" id="L"/><path fill="#ec9536" d="M115-3C79 11 28 4 28-45v-112H4v-33h27l15-45h31v45h36v33H77v99c-1 23 16 31 38 25v30" id="M"/><path fill="#ec9536" d="M133-34C117-15 103 5 69 4 32 3 11-16 11-54c-1-60 55-63 116-61 1-26-3-47-28-47-18 1-26 9-28 27l-52-2c7-38 36-58 82-57s74 22 75 68l1 82c-1 14 12 18 25 15v27c-30 8-71 5-69-32zm-48 3c29 0 43-24 42-57-32 0-66-3-65 30 0 17 8 27 23 27" id="N"/><path fill="#ec9536" d="M190-63c-7 42-38 67-86 67-59 0-84-38-90-98-12-110 154-137 174-36l-49 2c-2-19-15-32-35-32-30 0-35 28-38 64-6 74 65 87 74 30zm-84 77c20 1 33 9 33 27 0 32-36 36-71 33V53c15 1 39 4 39-11 0-13-16-12-31-12L87 0h25" id="O"/><path fill="#ec9536" d="M110-194c64 0 96 36 96 99 0 64-35 99-97 99-61 0-95-36-95-99 0-62 34-99 96-99zm-1 164c35 0 45-28 45-65 0-40-10-65-43-65-34 0-45 26-45 65 0 36 10 65 43 65zm70-229c-2 27-9 52-40 51-27-1-66-46-73 0H42c0-29 9-51 39-51 28 0 66 44 74 0h24" id="P"/><path fill="#ec9536" d="M185-48c-13 30-37 53-82 52C43 2 14-33 14-96s30-98 90-98c62 0 83 45 84 108H66c0 31 8 55 39 56 18 0 30-7 34-22zm-45-69c5-46-57-63-70-21-2 6-4 13-4 21h74" id="Q"/><path fill="#ec9536" d="M137-138c1-29-70-34-71-4 15 46 118 7 119 86 1 83-164 76-172 9l43-7c4 19 20 25 44 25 33 8 57-30 24-41C81-84 22-81 20-136c-2-80 154-74 161-7" id="R"/><g id="d"><use transform="matrix(0.05617283950617281,0,0,0.05617283950617281,0,0)" xlink:href="#K"/><use transform="matrix(0.05617283950617281,0,0,0.05617283950617281,16.79567901234567,0)" xlink:href="#L"/><use transform="matrix(0.05617283950617281,0,0,0.05617283950617281,29.097530864197513,0)" xlink:href="#M"/><use transform="matrix(0.05617283950617281,0,0,0.05617283950617281,35.78209876543208,0)" xlink:href="#N"/><use transform="matrix(0.05617283950617281,0,0,0.05617283950617281,47.016666666666644,0)" xlink:href="#O"/><use transform="matrix(0.05617283950617281,0,0,0.05617283950617281,58.2512345679012,0)" xlink:href="#P"/><use transform="matrix(0.05617283950617281,0,0,0.05617283950617281,70.55308641975306,0)" xlink:href="#Q"/><use transform="matrix(0.05617283950617281,0,0,0.05617283950617281,81.78765432098761,0)" xlink:href="#R"/></g><path d="M197 0v-115H63V0H30v-248h33v105h134v-105h34V0h-34" id="S"/><path d="M9 0v-24l116-142H16v-24h144v24L44-24h123V0H9" id="T"/><path d="M24-231v-30h32v30H24zM24 0v-190h32V0H24" id="U"/><path d="M177-190C167-65 218 103 67 71c-23-6-38-20-44-43l32-5c15 47 100 32 89-28v-30C133-14 115 1 83 1 29 1 15-40 15-95c0-56 16-97 71-98 29-1 48 16 59 35 1-10 0-23 2-32h30zM94-22c36 0 50-32 50-73 0-42-14-75-50-75-39 0-46 34-46 75s6 73 46 73" id="V"/><g id="e"><use transform="matrix(0.04382716049382713,0,0,0.04382716049382713,0,0)" xlink:href="#S"/><use transform="matrix(0.04382716049382713,0,0,0.04382716049382713,11.351234567901226,0)" xlink:href="#D"/><use transform="matrix(0.04382716049382713,0,0,0.04382716049382713,20.116666666666653,0)" xlink:href="#C"/><use transform="matrix(0.04382716049382713,0,0,0.04382716049382713,24.49938271604937,0)" xlink:href="#D"/><use transform="matrix(0.04382716049382713,0,0,0.04382716049382713,33.2648148148148,0)" xlink:href="#E"/><use transform="matrix(0.04382716049382713,0,0,0.04382716049382713,38.480246913580224,0)" xlink:href="#J"/><use transform="matrix(0.04382716049382713,0,0,0.04382716049382713,47.24567901234565,0)" xlink:href="#T"/><use transform="matrix(0.04382716049382713,0,0,0.04382716049382713,55.134567901234526,0)" xlink:href="#U"/><use transform="matrix(0.04382716049382713,0,0,0.04382716049382713,58.596913580246884,0)" xlink:href="#V"/><use transform="matrix(0.04382716049382713,0,0,0.04382716049382713,67.36234567901231,0)" xlink:href="#J"/><use transform="matrix(0.04382716049382713,0,0,0.04382716049382713,76.12777777777774,0)" xlink:href="#F"/><use transform="matrix(0.04382716049382713,0,0,0.04382716049382713,84.01666666666662,0)" xlink:href="#D"/></g><use transform="matrix(0.04382716049382713,0,0,0.04382716049382713,0,0)" xlink:href="#D" id="f"/><path d="M210-169c-67 3-38 105-44 169h-31v-121c0-29-5-50-35-48C34-165 62-65 56 0H25l-1-190h30c1 10-1 24 2 32 10-44 99-50 107 0 11-21 27-35 58-36 85-2 47 119 55 194h-31v-121c0-29-5-49-35-48" id="W"/><g id="g"><use transform="matrix(0.04382716049382713,0,0,0.04382716049382713,0,0)" xlink:href="#D"/><use transform="matrix(0.04382716049382713,0,0,0.04382716049382713,8.765432098765427,0)" xlink:href="#W"/></g><g id="h"><use transform="matrix(0.04382716049382713,0,0,0.04382716049382713,0,0)" xlink:href="#S"/><use transform="matrix(0.04382716049382713,0,0,0.04382716049382713,11.351234567901226,0)" xlink:href="#J"/><use transform="matrix(0.04382716049382713,0,0,0.04382716049382713,20.116666666666653,0)" xlink:href="#W"/><use transform="matrix(0.04382716049382713,0,0,0.04382716049382713,33.220987654320965,0)" xlink:href="#J"/><use transform="matrix(0.04382716049382713,0,0,0.04382716049382713,41.986419753086395,0)" xlink:href="#T"/><use transform="matrix(0.04382716049382713,0,0,0.04382716049382713,49.87530864197528,0)" xlink:href="#U"/><use transform="matrix(0.04382716049382713,0,0,0.04382716049382713,53.337654320987625,0)" xlink:href="#V"/><use transform="matrix(0.04382716049382713,0,0,0.04382716049382713,62.103086419753055,0)" xlink:href="#J"/><use transform="matrix(0.04382716049382713,0,0,0.04382716049382713,70.86851851851848,0)" xlink:href="#F"/><use transform="matrix(0.04382716049382713,0,0,0.04382716049382713,78.75740740740737,0)" xlink:href="#D"/></g><path d="M141-36C126-15 110 5 73 4 37 3 15-17 15-53c-1-64 63-63 125-63 3-35-9-54-41-54-24 1-41 7-42 31l-33-3c5-37 33-52 76-52 45 0 72 20 72 64v82c-1 20 7 32 28 27v20c-31 9-61-2-59-35zM48-53c0 20 12 33 32 33 41-3 63-29 60-74-43 2-92-5-92 41" id="X"/><path d="M24 0v-261h32V0H24" id="Y"/><g id="i"><use transform="matrix(0.04382716049382713,0,0,0.04382716049382713,0,0)" xlink:href="#y"/><use transform="matrix(0.04382716049382713,0,0,0.04382716049382713,10.51851851851851,0)" xlink:href="#B"/><use transform="matrix(0.04382716049382713,0,0,0.04382716049382713,19.283950617283935,0)" xlink:href="#X"/><use transform="matrix(0.04382716049382713,0,0,0.04382716049382713,28.04938271604936,0)" xlink:href="#Y"/><use transform="matrix(0.04382716049382713,0,0,0.04382716049382713,31.511728395061706,0)" xlink:href="#U"/><use transform="matrix(0.04382716049382713,0,0,0.04382716049382713,34.974074074074046,0)" xlink:href="#F"/><use transform="matrix(0.04382716049382713,0,0,0.04382716049382713,42.86296296296293,0)" xlink:href="#X"/><use transform="matrix(0.04382716049382713,0,0,0.04382716049382713,51.628395061728355,0)" xlink:href="#E"/></g><g id="j"><use transform="matrix(0.04382716049382713,0,0,0.04382716049382713,0,0)" xlink:href="#F"/><use transform="matrix(0.04382716049382713,0,0,0.04382716049382713,7.888888888888883,0)" xlink:href="#D"/></g><g id="k"><use transform="matrix(0.04382716049382713,0,0,0.04382716049382713,0,0)" xlink:href="#X"/><use transform="matrix(0.04382716049382713,0,0,0.04382716049382713,8.765432098765427,0)" xlink:href="#F"/></g><path d="M84 4C-5 8 30-112 23-190h32v120c0 31 7 50 39 49 72-2 45-101 50-169h31l1 190h-30c-1-10 1-25-2-33-11 22-28 36-60 37" id="Z"/><path d="M100-194c62-1 85 37 85 99 1 63-27 99-86 99S16-35 15-95c0-66 28-99 85-99zM99-20c44 1 53-31 53-75 0-43-8-75-51-75s-53 32-53 75 10 74 51 75zm66-238c-3 23-9 48-36 47-26-1-65-44-74 0H39c4-23 8-48 36-47s64 44 74 0h16" id="aa"/><g id="l"><use transform="matrix(0.04382716049382713,0,0,0.04382716049382713,0,0)" xlink:href="#W"/><use transform="matrix(0.04382716049382713,0,0,0.04382716049382713,13.104320987654312,0)" xlink:href="#Z"/><use transform="matrix(0.04382716049382713,0,0,0.04382716049382713,21.86975308641974,0)" xlink:href="#C"/><use transform="matrix(0.04382716049382713,0,0,0.04382716049382713,26.25246913580245,0)" xlink:href="#X"/><use transform="matrix(0.04382716049382713,0,0,0.04382716049382713,35.01790123456787,0)" xlink:href="#H"/><use transform="matrix(0.04382716049382713,0,0,0.04382716049382713,42.90679012345676,0)" xlink:href="#aa"/><use transform="matrix(0.04382716049382713,0,0,0.04382716049382713,51.67222222222218,0)" xlink:href="#D"/><use transform="matrix(0.04382716049382713,0,0,0.04382716049382713,60.43765432098762,0)" xlink:href="#F"/></g><g id="m"><use transform="matrix(0.04382716049382713,0,0,0.04382716049382713,0,0)" xlink:href="#D"/><use transform="matrix(0.04382716049382713,0,0,0.04382716049382713,8.765432098765427,0)" xlink:href="#F"/><use transform="matrix(0.04382716049382713,0,0,0.04382716049382713,16.65432098765431,0)" xlink:href="#C"/><use transform="matrix(0.04382716049382713,0,0,0.04382716049382713,21.037037037037024,0)" xlink:href="#I"/><use transform="matrix(0.04382716049382713,0,0,0.04382716049382713,29.802469135802454,0)" xlink:href="#J"/></g><path d="M115-194c55 1 70 41 70 98S169 2 115 4C84 4 66-9 55-30l1 105H24l-1-265h31l2 30c10-21 28-34 59-34zm-8 174c40 0 45-34 45-75s-6-73-45-74c-42 0-51 32-51 76 0 43 10 73 51 73" id="ab"/><g id="n"><use transform="matrix(0.04382716049382713,0,0,0.04382716049382713,0,0)" xlink:href="#ab"/><use transform="matrix(0.04382716049382713,0,0,0.04382716049382713,8.765432098765427,0)" xlink:href="#E"/><use transform="matrix(0.04382716049382713,0,0,0.04382716049382713,13.980864197530856,0)" xlink:href="#D"/><use transform="matrix(0.04382716049382713,0,0,0.04382716049382713,22.746296296296286,0)" xlink:href="#F"/><use transform="matrix(0.04382716049382713,0,0,0.04382716049382713,30.635185185185165,0)" xlink:href="#D"/><use transform="matrix(0.04382716049382713,0,0,0.04382716049382713,39.400617283950595,0)" xlink:href="#B"/><use transform="matrix(0.04382716049382713,0,0,0.04382716049382713,48.166049382716025,0)" xlink:href="#C"/><use transform="matrix(0.04382716049382713,0,0,0.04382716049382713,52.54876543209874,0)" xlink:href="#D"/><use transform="matrix(0.04382716049382713,0,0,0.04382716049382713,61.31419753086416,0)" xlink:href="#F"/></g><path fill="#fcce14" d="M140-251c80 0 125 45 125 126S219 4 139 4C58 4 15-44 15-125s44-126 125-126zm-1 214c52 0 73-35 73-88 0-50-21-86-72-86-52 0-73 35-73 86s22 88 72 88" id="ac"/><path fill="#fcce14" d="M135-194c52 0 70 43 70 98 0 56-19 99-73 100-30 1-46-15-58-35L72 0H24l1-261h50v104c11-23 29-37 60-37zM114-30c31 0 40-27 40-66 0-37-7-63-39-63s-41 28-41 65c0 36 8 64 40 64" id="ad"/><path fill="#fcce14" d="M25-224v-37h50v37H25zM75 22c2 45-34 59-81 51V38c22 5 31-5 31-27v-201h50V22" id="ae"/><path fill="#fcce14" d="M185-48c-13 30-37 53-82 52C43 2 14-33 14-96s30-98 90-98c62 0 83 45 84 108H66c0 31 8 55 39 56 18 0 30-7 34-22zm-45-69c5-46-57-63-70-21-2 6-4 13-4 21h74" id="af"/><path fill="#fcce14" d="M115-3C79 11 28 4 28-45v-112H4v-33h27l15-45h31v45h36v33H77v99c-1 23 16 31 38 25v30" id="ag"/><path fill="#fcce14" d="M25-224v-37h50v37H25zM25 0v-190h50V0H25" id="ah"/><path fill="#fcce14" d="M128 0H69L1-190h53L99-40l48-150h52" id="ai"/><path fill="#fcce14" d="M110-194c64 0 96 36 96 99 0 64-35 99-97 99-61 0-95-36-95-99 0-62 34-99 96-99zm-1 164c35 0 45-28 45-65 0-40-10-65-43-65-34 0-45 26-45 65 0 36 10 65 43 65" id="aj"/><g id="o"><use transform="matrix(0.08086419753086416,0,0,0.08086419753086416,0,0)" xlink:href="#ac"/><use transform="matrix(0.08086419753086416,0,0,0.08086419753086416,22.641975308641964,0)" xlink:href="#ad"/><use transform="matrix(0.08086419753086416,0,0,0.08086419753086416,40.351234567901216,0)" xlink:href="#ae"/><use transform="matrix(0.08086419753086416,0,0,0.08086419753086416,48.43765432098763,0)" xlink:href="#af"/><use transform="matrix(0.08086419753086416,0,0,0.08086419753086416,64.61049382716047,0)" xlink:href="#ag"/><use transform="matrix(0.08086419753086416,0,0,0.08086419753086416,74.2333333333333,0)" xlink:href="#ah"/><use transform="matrix(0.08086419753086416,0,0,0.08086419753086416,82.31975308641972,0)" xlink:href="#ai"/><use transform="matrix(0.08086419753086416,0,0,0.08086419753086416,98.49259259259256,0)" xlink:href="#aj"/></g><path fill="#fcce14" d="M24-248c93 1 206-16 204 79-1 75-69 88-152 82V0H24v-248zm52 121c47 0 100 7 100-41 0-47-54-39-100-39v80" id="ak"/><path fill="#fcce14" d="M135-150c-39-12-60 13-60 57V0H25l-1-190h47c2 13-1 29 3 40 6-28 27-53 61-41v41" id="al"/><path fill="#fcce14" d="M135-194c87-1 58 113 63 194h-50c-7-57 23-157-34-157-59 0-34 97-39 157H25l-1-190h47c2 12-1 28 3 38 12-26 28-41 61-42" id="am"/><path fill="#fcce14" d="M190-63c-7 42-38 67-86 67-59 0-84-38-90-98-12-110 154-137 174-36l-49 2c-2-19-15-32-35-32-30 0-35 28-38 64-6 74 65 87 74 30" id="an"/><path fill="#fcce14" d="M135-194c53 0 70 44 70 98 0 56-19 98-73 100-31 1-45-17-59-34 3 33 2 69 2 105H25l-1-265h48c2 10 0 23 3 31 11-24 29-35 60-35zM114-30c33 0 39-31 40-66 0-38-9-64-40-64-56 0-55 130 0 130" id="ao"/><path fill="#fcce14" d="M133-34C117-15 103 5 69 4 32 3 11-16 11-54c-1-60 55-63 116-61 1-26-3-47-28-47-18 1-26 9-28 27l-52-2c7-38 36-58 82-57s74 22 75 68l1 82c-1 14 12 18 25 15v27c-30 8-71 5-69-32zm-48 3c29 0 43-24 42-57-32 0-66-3-65 30 0 17 8 27 23 27" id="ap"/><path fill="#fcce14" d="M25 0v-261h50V0H25" id="aq"/><g id="p"><use transform="matrix(0.08086419753086416,0,0,0.08086419753086416,0,0)" xlink:href="#ak"/><use transform="matrix(0.08086419753086416,0,0,0.08086419753086416,19.407407407407398,0)" xlink:href="#al"/><use transform="matrix(0.08086419753086416,0,0,0.08086419753086416,30.728395061728378,0)" xlink:href="#ah"/><use transform="matrix(0.08086419753086416,0,0,0.08086419753086416,38.814814814814795,0)" xlink:href="#am"/><use transform="matrix(0.08086419753086416,0,0,0.08086419753086416,56.52407407407406,0)" xlink:href="#an"/><use transform="matrix(0.08086419753086416,0,0,0.08086419753086416,72.69691358024689,0)" xlink:href="#ah"/><use transform="matrix(0.08086419753086416,0,0,0.08086419753086416,80.7833333333333,0)" xlink:href="#ao"/><use transform="matrix(0.08086419753086416,0,0,0.08086419753086416,98.49259259259256,0)" xlink:href="#ap"/><use transform="matrix(0.08086419753086416,0,0,0.08086419753086416,114.6654320987654,0)" xlink:href="#aq"/></g><path fill="#1071e5" d="M140-251c80 0 125 45 125 126S219 4 139 4C58 4 15-44 15-125s44-126 125-126zm-1 214c52 0 73-35 73-88 0-50-21-86-72-86-52 0-73 35-73 86s22 88 72 88" id="ar"/><path fill="#1071e5" d="M135-194c52 0 70 43 70 98 0 56-19 99-73 100-30 1-46-15-58-35L72 0H24l1-261h50v104c11-23 29-37 60-37zM114-30c31 0 40-27 40-66 0-37-7-63-39-63s-41 28-41 65c0 36 8 64 40 64" id="as"/><path fill="#1071e5" d="M25-224v-37h50v37H25zM75 22c2 45-34 59-81 51V38c22 5 31-5 31-27v-201h50V22" id="at"/><path fill="#1071e5" d="M185-48c-13 30-37 53-82 52C43 2 14-33 14-96s30-98 90-98c62 0 83 45 84 108H66c0 31 8 55 39 56 18 0 30-7 34-22zm-45-69c5-46-57-63-70-21-2 6-4 13-4 21h74" id="au"/><path fill="#1071e5" d="M115-3C79 11 28 4 28-45v-112H4v-33h27l15-45h31v45h36v33H77v99c-1 23 16 31 38 25v30" id="av"/><path fill="#1071e5" d="M25-224v-37h50v37H25zM25 0v-190h50V0H25" id="aw"/><path fill="#1071e5" d="M128 0H69L1-190h53L99-40l48-150h52" id="ax"/><path fill="#1071e5" d="M110-194c64 0 96 36 96 99 0 64-35 99-97 99-61 0-95-36-95-99 0-62 34-99 96-99zm-1 164c35 0 45-28 45-65 0-40-10-65-43-65-34 0-45 26-45 65 0 36 10 65 43 65" id="ay"/><path fill="#1071e5" d="M137-138c1-29-70-34-71-4 15 46 118 7 119 86 1 83-164 76-172 9l43-7c4 19 20 25 44 25 33 8 57-30 24-41C81-84 22-81 20-136c-2-80 154-74 161-7" id="az"/><g id="q"><use transform="matrix(0.06851851851851848,0,0,0.06851851851851848,0,0)" xlink:href="#ar"/><use transform="matrix(0.06851851851851848,0,0,0.06851851851851848,19.185185185185173,0)" xlink:href="#as"/><use transform="matrix(0.06851851851851848,0,0,0.06851851851851848,34.19074074074072,0)" xlink:href="#at"/><use transform="matrix(0.06851851851851848,0,0,0.06851851851851848,41.04259259259257,0)" xlink:href="#au"/><use transform="matrix(0.06851851851851848,0,0,0.06851851851851848,54.746296296296265,0)" xlink:href="#av"/><use transform="matrix(0.06851851851851848,0,0,0.06851851851851848,62.89999999999996,0)" xlink:href="#aw"/><use transform="matrix(0.06851851851851848,0,0,0.06851851851851848,69.75185185185181,0)" xlink:href="#ax"/><use transform="matrix(0.06851851851851848,0,0,0.06851851851851848,83.4555555555555,0)" xlink:href="#ay"/><use transform="matrix(0.06851851851851848,0,0,0.06851851851851848,98.46111111111105,0)" xlink:href="#az"/></g><path fill="#1071e5" d="M169-182c-1-43-94-46-97-3 18 66 151 10 154 114 3 95-165 93-204 36-6-8-10-19-12-30l50-8c3 46 112 56 116 5-17-69-150-10-154-114-4-87 153-88 188-35 5 8 8 18 10 28" id="aA"/><path fill="#1071e5" d="M190-63c-7 42-38 67-86 67-59 0-84-38-90-98-12-110 154-137 174-36l-49 2c-2-19-15-32-35-32-30 0-35 28-38 64-6 74 65 87 74 30" id="aB"/><path fill="#1071e5" d="M85 4C-2 5 27-109 22-190h50c7 57-23 150 33 157 60-5 35-97 40-157h50l1 190h-47c-2-12 1-28-3-38-12 25-28 42-61 42" id="aC"/><path fill="#1071e5" d="M135-194c87-1 58 113 63 194h-50c-7-57 23-157-34-157-59 0-34 97-39 157H25l-1-190h47c2 12-1 28 3 38 12-26 28-41 61-42" id="aD"/><path fill="#1071e5" d="M88-194c31-1 46 15 58 34l-1-101h50l1 261h-48c-2-10 0-23-3-31C134-8 116 4 84 4 32 4 16-41 15-95c0-56 19-97 73-99zm17 164c33 0 40-30 41-66 1-37-9-64-41-64s-38 30-39 65c0 43 13 65 39 65" id="aE"/><path fill="#1071e5" d="M132-34C116-15 102 5 68 4 31 3 10-16 10-54c-1-60 55-63 116-61 1-26-3-47-28-47-18 1-26 9-28 27l-52-2c7-38 36-58 82-57s74 22 75 68l1 82c-1 14 12 18 25 15v27c-30 8-71 5-69-32zm-48 3c29 0 43-24 42-57-32 0-66-3-65 30 0 17 8 27 23 27zM66-208v-5l45-51h45v8l-60 48H66" id="aF"/><path fill="#1071e5" d="M135-150c-39-12-60 13-60 57V0H25l-1-190h47c2 13-1 29 3 40 6-28 27-53 61-41v41" id="aG"/><g id="r"><use transform="matrix(0.06851851851851848,0,0,0.06851851851851848,0,0)" xlink:href="#aA"/><use transform="matrix(0.06851851851851848,0,0,0.06851851851851848,16.444444444444436,0)" xlink:href="#au"/><use transform="matrix(0.06851851851851848,0,0,0.06851851851851848,30.14814814814813,0)" xlink:href="#aB"/><use transform="matrix(0.06851851851851848,0,0,0.06851851851851848,43.851851851851826,0)" xlink:href="#aC"/><use transform="matrix(0.06851851851851848,0,0,0.06851851851851848,58.85740740740737,0)" xlink:href="#aD"/><use transform="matrix(0.06851851851851848,0,0,0.06851851851851848,73.86296296296292,0)" xlink:href="#aE"/><use transform="matrix(0.06851851851851848,0,0,0.06851851851851848,88.86851851851847,0)" xlink:href="#aF"/><use transform="matrix(0.06851851851851848,0,0,0.06851851851851848,102.57222222222217,0)" xlink:href="#aG"/><use transform="matrix(0.06851851851851848,0,0,0.06851851851851848,112.16481481481475,0)" xlink:href="#aw"/><use transform="matrix(0.06851851851851848,0,0,0.06851851851851848,119.0166666666666,0)" xlink:href="#ay"/><use transform="matrix(0.06851851851851848,0,0,0.06851851851851848,134.02222222222215,0)" xlink:href="#az"/></g><g id="s"><use transform="matrix(0.03765432098765428,0,0,0.03765432098765428,0,0)" xlink:href="#y"/><use transform="matrix(0.03765432098765428,0,0,0.03765432098765428,9.037037037037027,0)" xlink:href="#W"/><use transform="matrix(0.03765432098765428,0,0,0.03765432098765428,20.29567901234566,0)" xlink:href="#J"/><use transform="matrix(0.03765432098765428,0,0,0.03765432098765428,27.826543209876515,0)" xlink:href="#F"/><use transform="matrix(0.03765432098765428,0,0,0.03765432098765428,34.60432098765428,0)" xlink:href="#C"/><use transform="matrix(0.03765432098765428,0,0,0.03765432098765428,38.36975308641971,0)" xlink:href="#E"/><use transform="matrix(0.03765432098765428,0,0,0.03765432098765428,42.85061728395056,0)" xlink:href="#X"/><use transform="matrix(0.03765432098765428,0,0,0.03765432098765428,50.38148148148143,0)" xlink:href="#F"/></g><path d="M85-194c31 0 48 13 60 33l-1-100h32l1 261h-30c-2-10 0-23-3-31C134-8 116 4 85 4 32 4 16-35 15-94c0-66 23-100 70-100zm9 24c-40 0-46 34-46 75 0 40 6 74 45 74 42 0 51-32 51-76 0-42-9-74-50-73" id="aH"/><g id="t"><use transform="matrix(0.03765432098765428,0,0,0.03765432098765428,0,0)" xlink:href="#aH"/><use transform="matrix(0.03765432098765428,0,0,0.03765432098765428,7.530864197530857,0)" xlink:href="#J"/></g><g id="u"><use transform="matrix(0.03765432098765428,0,0,0.03765432098765428,0,0)" xlink:href="#W"/><use transform="matrix(0.03765432098765428,0,0,0.03765432098765428,11.258641975308631,0)" xlink:href="#D"/><use transform="matrix(0.03765432098765428,0,0,0.03765432098765428,18.789506172839488,0)" xlink:href="#F"/><use transform="matrix(0.03765432098765428,0,0,0.03765432098765428,25.56728395061726,0)" xlink:href="#W"/><use transform="matrix(0.03765432098765428,0,0,0.03765432098765428,36.82592592592589,0)" xlink:href="#J"/></g><path d="M108 0H70L1-190h34L89-25l56-165h34" id="aI"/><path d="M34 0v-190h32V0H34zM24-211c8-23 27-35 38-54h36v5l-58 49H24" id="aJ"/><g id="v"><use transform="matrix(0.03765432098765428,0,0,0.03765432098765428,0,0)" xlink:href="#U"/><use transform="matrix(0.03765432098765428,0,0,0.03765432098765428,2.9746913580246885,0)" xlink:href="#B"/><use transform="matrix(0.03765432098765428,0,0,0.03765432098765428,10.505555555555546,0)" xlink:href="#aH"/><use transform="matrix(0.03765432098765428,0,0,0.03765432098765428,18.036419753086403,0)" xlink:href="#U"/><use transform="matrix(0.03765432098765428,0,0,0.03765432098765428,21.01111111111109,0)" xlink:href="#aI"/><use transform="matrix(0.03765432098765428,0,0,0.03765432098765428,27.788888888888867,0)" xlink:href="#aJ"/><use transform="matrix(0.03765432098765428,0,0,0.03765432098765428,31.554320987654293,0)" xlink:href="#aH"/><use transform="matrix(0.03765432098765428,0,0,0.03765432098765428,39.08518518518515,0)" xlink:href="#Z"/><use transform="matrix(0.03765432098765428,0,0,0.03765432098765428,46.616049382716014,0)" xlink:href="#J"/></g></defs></g></svg>